# xmcd
#
# Track frame offsets: 
#        150
#        10588
#        24436
#        35443
#        48508
#        58789
#        72554
#        85122
#        98161
#        111755
#        126196
#        137045
#        147430
#        159291
#        169649
#        180132
#        193744
#        204576
#        217548
#        230830
#
# Disc length: 3265 seconds
#
# Revision: 0
# Processed by: cddbd v1.5.2PL0 Copyright (c) Steve Scherf et al.
# Submitted via: ExactAudioCopy v0.99pb4
#
DISCID=0d0cbf14
DTITLE=Otis Redding - 100 Hits Legends [CD5)
DYEAR=2010
DGENRE=Soul
TTITLE0=Love Man
TTITLE1=(Your Love Has Lifted Me) Higher And Higher
TTITLE2=Got To Get Myself Together
TTITLE3=A Lover's Question
TTITLE4=I'm A Changed Man
TTITLE5=The Huckle-Buck
TTITLE6=Groovin' Time
TTITLE7=The Match Game
TTITLE8=I'm Coming Home
TTITLE9=Tell The Truth
TTITLE10=Open The Door
TTITLE11=Direct Me
TTITLE12=Look At That Girl
TTITLE13=That's A Good Idea
TTITLE14=Your Feeling Is Mine
TTITLE15=Champagne And Wine
TTITLE16=Nobody's Fault But Mine
TTITLE17=I'll Let Nothing Separate Us
TTITLE18=A Fool For You
TTITLE19=Free Me
EXTD=
EXTT0=
EXTT1=
EXTT2=
EXTT3=
EXTT4=
EXTT5=
EXTT6=
EXTT7=
EXTT8=
EXTT9=
EXTT10=
EXTT11=
EXTT12=
EXTT13=
EXTT14=
EXTT15=
EXTT16=
EXTT17=
EXTT18=
EXTT19=
PLAYORDER=
